<svg viewBox="0 0 375 1000" xmlns="http://www.w3.org/2000/svg" font-family="Arial, sans-serif">
  <rect width="375" height="1000" fill="#f8f8fc"/>

  <!-- HEADER -->
  <rect x="0" y="0" width="375" height="70" fill="#1e1b3a"/>
  <text x="15" y="40" fill="white" font-size="17" font-weight="bold">NEXT SHOPPING</text>
  <rect x="150" y="20" width="200" height="32" rx="16" fill="white"/>
  <text x="165" y="41" fill="#999" font-size="12">Buscar...</text>
  <circle cx="335" cy="36" r="10" fill="none" stroke="white" stroke-width="1.5"/>

  <!-- CATEGORIAS -->
  <text x="15" y="98" font-size="11" fill="#1e1b3a" font-weight="bold">CATEGORIAS</text>
  <rect x="15" y="108" width="72" height="30" rx="15" fill="#eeeefb"/>
  <text x="27" y="127" font-size="10" fill="#5b5fef" font-weight="bold">Neveras</text>
  <rect x="97" y="108" width="80" height="30" rx="15" fill="#eeeefb"/>
  <text x="109" y="127" font-size="10" fill="#5b5fef" font-weight="bold">Lavadoras</text>
  <rect x="187" y="108" width="72" height="30" rx="15" fill="#eeeefb"/>
  <text x="199" y="127" font-size="10" fill="#5b5fef" font-weight="bold">Estufas</text>
  <rect x="267" y="108" width="90" height="30" rx="15" fill="#5b5fef"/>
  <text x="279" y="127" font-size="10" fill="white" font-weight="bold">Ver todo &#8594;</text>

  <!-- FAVORITOS -->
  <text x="15" y="172" font-size="13" fill="#1e1b3a" font-weight="bold">Tus favoritos</text>
  <text x="15" y="186" font-size="9" fill="#999">Desliza para ver mas &#8594;</text>

  <rect x="15" y="195" width="105" height="145" rx="10" fill="white"/>
  <rect x="15" y="195" width="105" height="145" rx="10" fill="none" stroke="#eee"/>
  <rect x="23" y="203" width="89" height="80" rx="6" fill="#eeeefb"/>
  <text x="23" y="298" font-size="9" fill="#333" font-weight="bold">Lavadora LG 18kg</text>
  <text x="23" y="315" font-size="11" fill="#5b5fef" font-weight="bold">$1.899.000</text>
  <circle cx="102" cy="215" r="12" fill="white" opacity="0.9"/>
  <text x="96" y="220" font-size="11" fill="#ff4d6d">&#9829;</text>

  <rect x="128" y="195" width="105" height="145" rx="10" fill="white" stroke="#eee"/>
  <rect x="136" y="203" width="89" height="80" rx="6" fill="#eeeefb"/>
  <text x="136" y="298" font-size="9" fill="#333" font-weight="bold">Nevera Samsung</text>
  <text x="136" y="315" font-size="11" fill="#5b5fef" font-weight="bold">$2.450.000</text>

  <rect x="241" y="195" width="105" height="145" rx="10" fill="white" stroke="#eee"/>
  <rect x="249" y="203" width="89" height="80" rx="6" fill="#eeeefb"/>
  <text x="249" y="298" font-size="9" fill="#333" font-weight="bold">Microondas LG</text>
  <text x="249" y="315" font-size="11" fill="#5b5fef" font-weight="bold">$410.000</text>

  <rect x="354" y="195" width="25" height="145" rx="10" fill="white" opacity="0.5"/>

  <circle cx="175" cy="352" r="3" fill="#5b5fef"/>
  <circle cx="185" cy="352" r="3" fill="#ddd"/>
  <circle cx="195" cy="352" r="3" fill="#ddd"/>

  <!-- PARA TI -->
  <text x="15" y="390" font-size="13" fill="#1e1b3a" font-weight="bold">Para ti</text>
  <text x="15" y="404" font-size="9" fill="#999">Basado en tus busquedas recientes</text>

  <rect x="15" y="415" width="345" height="115" rx="10" fill="white" stroke="#eee"/>
  <rect x="25" y="425" width="95" height="95" rx="8" fill="#eeeefb"/>
  <text x="130" y="442" font-size="12" fill="#333" font-weight="bold">Microondas Whirlpool 20L</text>
  <text x="130" y="460" font-size="9" fill="#666">Panel digital, 700W</text>
  <text x="130" y="480" font-size="14" fill="#5b5fef" font-weight="bold">$389.000</text>
  <rect x="130" y="492" width="105" height="28" rx="14" fill="#5b5fef"/>
  <text x="140" y="510" font-size="9" fill="white" font-weight="bold">+ Carrito</text>

  <rect x="15" y="540" width="345" height="115" rx="10" fill="white" stroke="#eee"/>
  <rect x="25" y="550" width="95" height="95" rx="8" fill="#eeeefb"/>
  <text x="130" y="567" font-size="12" fill="#333" font-weight="bold">Licuadora Oster 600W</text>
  <text x="130" y="585" font-size="9" fill="#666">3 velocidades</text>
  <text x="130" y="605" font-size="14" fill="#5b5fef" font-weight="bold">$159.000</text>
  <rect x="130" y="617" width="105" height="28" rx="14" fill="#5b5fef"/>
  <text x="140" y="635" font-size="9" fill="white" font-weight="bold">+ Carrito</text>

  <!-- CATALOGO -->
  <text x="15" y="695" font-size="13" fill="#1e1b3a" font-weight="bold">Catalogo</text>

  <rect x="15" y="705" width="165" height="165" rx="10" fill="white" stroke="#eee"/>
  <rect x="23" y="713" width="149" height="100" rx="8" fill="#eeeefb"/>
  <text x="23" y="833" font-size="10" fill="#333" font-weight="bold">Estufa Haceb</text>
  <text x="23" y="850" font-size="11" fill="#5b5fef" font-weight="bold">$720.000</text>

  <rect x="195" y="705" width="165" height="165" rx="10" fill="white" stroke="#eee"/>
  <rect x="203" y="713" width="149" height="100" rx="8" fill="#eeeefb"/>
  <text x="203" y="833" font-size="10" fill="#333" font-weight="bold">Aire Acond. LG</text>
  <text x="203" y="850" font-size="11" fill="#5b5fef" font-weight="bold">$1.680.000</text>

  <!-- NAVBAR -->
  <rect x="0" y="930" width="375" height="70" fill="#1e1b3a"/>

  <path d="M 45 948 L 37 956 L 37 964 L 53 964 L 53 956 Z" fill="none" stroke="#5b5fef" stroke-width="2"/>
  <text x="33" y="982" font-size="9" fill="#5b5fef" font-weight="bold">Home</text>

  <path d="M 120 948 L 113 962 L 127 962 Z" fill="none" stroke="#ccc" stroke-width="1.5"/>
  <text x="97" y="982" font-size="9" fill="#ccc">Favoritos</text>

  <path d="M 185 950 L 200 950 L 198 962 L 187 962 Z" fill="none" stroke="#ccc" stroke-width="2"/>
  <text x="177" y="982" font-size="9" fill="#ccc">Carrito</text>

  <rect x="258" y="948" width="14" height="16" fill="none" stroke="#ccc" stroke-width="2"/>
  <text x="250" y="982" font-size="9" fill="#ccc">Pedidos</text>

  <circle cx="335" cy="955" r="9" fill="none" stroke="#ccc" stroke-width="2"/>
  <text x="320" y="982" font-size="9" fill="#ccc">Perfil</text>

</svg>
